 0
SECTION
 2
HEADER
 9
$ACADVER
 1
AC1009
 9
$DWGCODEPAGE
 3
ansi_1251
 9
$EXTMIN
 10
-68047.9934694887343            
 20
6067332.99751900695             
 9
$EXTMAX
 10
-68041.9646183200239            
 20
6067342.97373729385             
 9
$LIMMIN
 10
-68500                          
 20
6066800                         
 9
$LIMMAX
 10
-67500                          
 20
6068000                         
 9
$LTSCALE
 40
1
 9
$UCSXDIR
 10
1
 20
0
 30
0
 9
$UCSYDIR
 10
0
 20
1
 30
0
 0
ENDSEC
 0
SECTION
 2
TABLES
 0
TABLE
 2
LAYER
 70
1
 0
LAYER
 2
6-210-ךאפ
 70
64
 62
1
 6
CONTINUOUS
 0
ENDTAB
 0
ENDSEC
 0
SECTION
 2
ENTITIES
 0
POLYLINE
 8
6-210-ךאפ
 70
1
 40
0
 41
0
 62
5
 6
BYLAYER
 66
1
 0
VERTEX
 8
6-210-ךאפ
 10
-68047.1915857236163
 20
6067340.22685765661
 42
0
 0
VERTEX
 8
6-210-ךאפ
 10
-68045.7104817705695
 20
6067339.78901448753
 42
0
 0
VERTEX
 8
6-210-ךאפ
 10
-68045.153464226707
 20
6067341.70376229379
 42
0
 0
VERTEX
 8
6-210-ךאפ
 10
-68045.6930749723251
 20
6067341.8604234783
 42
0
 0
VERTEX
 8
6-210-ךאפ
 10
-68046.093431331974
 20
6067340.46787961945
 42
0
 0
VERTEX
 8
6-210-ךאפ
 10
-68047.0389803785511
 20
6067340.76761299092
 42
0
 0
SEQEND
 0
POLYLINE
 8
6-210-ךאפ
 70
1
 40
0
 41
0
 62
5
 6
BYLAYER
 66
1
 0
VERTEX
 8
6-210-ךאפ
 10
-68045.3478142382955
 20
6067342.97373729385
 42
0
 0
VERTEX
 8
6-210-ךאפ
 10
-68045.4145662004012
 20
6067342.60891580302
 42
0
 0
VERTEX
 8
6-210-ךאפ
 10
-68044.82273506005
 20
6067342.43484782055
 42
0
 0
VERTEX
 8
6-210-ךאפ
 10
-68044.6987418440112
 20
6067342.790587781
 42
0
 0
SEQEND
 0
POLYLINE
 8
6-210-ךאפ
 70
1
 40
0
 41
0
 62
5
 6
BYLAYER
 66
1
 0
VERTEX
 8
6-210-ךאפ
 10
-68043.6673284940043
 20
6067340.71293673664
 42
0
 0
VERTEX
 8
6-210-ךאפ
 10
-68043.7745194265299
 20
6067340.36724686157
 42
0
 0
VERTEX
 8
6-210-ךאפ
 10
-68042.8143534752598
 20
6067340.08593560662
 42
0
 0
VERTEX
 8
6-210-ךאפ
 10
-68042.7244983099372
 20
6067340.42879613303
 42
0
 0
SEQEND
 0
POLYLINE
 8
6-210-ךאפ
 70
1
 40
0
 41
0
 62
5
 6
BYLAYER
 66
1
 0
VERTEX
 8
6-210-ךאפ
 10
-68045.0693237606465
 20
6067338.57190434169
 42
0
 0
VERTEX
 8
6-210-ךאפ
 10
-68045.2056846214546
 20
6067338.06574146077
 42
0
 0
VERTEX
 8
6-210-ךאפ
 10
-68044.6138534811034
 20
6067337.8742666794
 42
0
 0
VERTEX
 8
6-210-ךאפ
 10
-68044.4469617256836
 20
6067338.36716133356
 42
0
 0
SEQEND
 0
POLYLINE
 8
6-210-ךאפ
 70
1
 40
0
 41
0
 62
5
 6
BYLAYER
 66
1
 0
VERTEX
 8
6-210-ךאפ
 10
-68047.8312934885907
 20
6067337.79195191152
 42
0
 0
VERTEX
 8
6-210-ךאפ
 10
-68047.1639494240808
 20
6067337.60010960698
 42
0
 0
VERTEX
 8
6-210-ךאפ
 10
-68047.317823756297
 20
6067337.02258195821
 42
0
 0
VERTEX
 8
6-210-ךאפ
 10
-68047.9934694887343
 20
6067337.21729591116
 42
0
 0
SEQEND
 0
POLYLINE
 8
6-210-ךאפ
 70
1
 40
0
 41
0
 62
5
 6
BYLAYER
 66
1
 0
VERTEX
 8
6-210-ךאפ
 10
-68042.1297876806348
 20
6067336.17966300994
 42
0
 0
VERTEX
 8
6-210-ךאפ
 10
-68041.9646183200239
 20
6067336.70213834662
 42
0
 0
VERTEX
 8
6-210-ךאפ
 10
-68042.4031901039125
 20
6067336.8298587855
 42
0
 0
VERTEX
 8
6-210-ךאפ
 10
-68042.5642029876908
 20
6067336.32070993725
 42
0
 0
VERTEX
 8
6-210-ךאפ
 10
-68042.1133396806254
 20
6067336.17505501024
 42
0
 0
VERTEX
 8
6-210-ךאפ
 10
-68042.113509733681
 20
6067336.17451708671
 42
0
 0
SEQEND
 0
POLYLINE
 8
6-210-ךאפ
 70
1
 40
0
 41
0
 62
5
 6
BYLAYER
 66
1
 0
VERTEX
 8
6-210-ךאפ
 10
-68043.0101076814462
 20
6067332.99751900695
 42
0
 0
VERTEX
 8
6-210-ךאפ
 10
-68042.8457461504295
 20
6067333.54954545945
 42
0
 0
VERTEX
 8
6-210-ךאפ
 10
-68044.0002638428705
 20
6067333.88810987584
 42
0
 0
VERTEX
 8
6-210-ךאפ
 10
-68044.1479442696727
 20
6067333.31864321418
 42
0
 0
SEQEND
 0
POLYLINE
 8
6-210-ךאפ
 70
1
 40
0
 41
0
 62
5
 6
BYLAYER
 66
1
 0
VERTEX
 8
6-210-ךאפ
 10
-68044.6835848085611
 20
6067335.18636493478
 42
0
 0
VERTEX
 8
6-210-ךאפ
 10
-68044.7967289971566
 20
6067334.75989837758
 42
0
 0
VERTEX
 8
6-210-ךאפ
 10
-68044.3061933246645
 20
6067334.61513789836
 42
0
 0
VERTEX
 8
6-210-ךאפ
 10
-68044.2104559343134
 20
6067335.04160445556
 42
0
 0
SEQEND
 0
POLYLINE
 8
6-210-ךאפ
 70
1
 40
0
 41
0
 62
5
 6
BYLAYER
 66
1
 0
VERTEX
 8
6-210-ךאפ
 10
-68045.5929858817544
 20
6067334.23407007661
 42
0
 0
VERTEX
 8
6-210-ךאפ
 10
-68045.717124431394
 20
6067333.76150270738
 42
0
 0
VERTEX
 8
6-210-ךאפ
 10
-68045.2247391497222
 20
6067333.62254001666
 42
0
 0
VERTEX
 8
6-210-ךאפ
 10
-68045.0925404322043
 20
6067334.10569493938
 42
0
 0
SEQEND
 0
ENDSEC
 0
EOF
